<?xml version="1.0" encoding="utf-8"?>
<!-- Generator: Adobe Illustrator 28.0.0, SVG Export Plug-In . SVG Version: 6.00 Build 0)  -->
<svg version="1.0" id="Слой_1" xmlns="http://www.w3.org/2000/svg" xmlns:xlink="http://www.w3.org/1999/xlink" x="0px" y="0px"
	 viewBox="0 0 1080 1080" style="enable-background:new 0 0 1080 1080;" xml:space="preserve">
<style type="text/css">
	.st0{fill:#D5D6A5;}
	.st1{fill:#FFFBF6;}
	.st2{fill:#FFFFFF;}
	.st3{fill:#1D1E1B;}
	.st4{fill:#4B4A49;}
	.st5{fill:#FBE1E7;}
	.st6{fill:#868686;}
	.st7{fill:#C5C496;}
	.st8{fill:#F7C6D3;}
	.st9{fill:#E2DED5;}
</style>
<g>
	<g>
		<g>
			<g>
				<g>
					<path class="st4" d="M552.39,703.87c-6.4,9.54-15.38,18.83-22.03,19.25c-5.22,0.32-6.93-0.8-7.53-5.49
						c-0.59-4.59,5.39-10.82,9.54-15.18c5.79-6.11,8.23-6.57,10.9-6.64c2.56-0.06,6.04,2.91,6.78,3.28
						c2.87-3.47,10.32-15.95,9.6-27.52c-0.91-14.64-16-12.78-22.14-12.4c-16.79,1.04-33.04,5.85-43.58,9.89
						c-16.86,6.49-35.16,18-36.29,18.07c-0.51,0.03-1.27-0.64-1.3-1.15c-0.06-2.67,22.72-14.77,35.37-19.66
						c14.25-5.61,30.83-9.92,44.55-10.77c14.33-0.89,26.75,0.5,27.64,14.83C564.48,679.99,559.93,692.81,552.39,703.87z
						 M542.96,700.95c-1.99-0.6-6.83,2.58-9.5,5.93c-3.24,4.11-6.16,8.4-6.33,10.67c-0.13,1.24,1.84,1.43,2.98,1.67
						c1.46,0.32,6.49-3.07,10.46-7.02c2.7-2.84,4.61-5.32,5.46-8.15C545.43,702.55,544.54,701.47,542.96,700.95z"/>
				</g>
			</g>
			<g>
				<g>
					<path class="st4" d="M605.52,712.16c-5.69,4.36-13.17,8.01-17.26,8.26c-2.05,0.13-5.62-1.19-6.63-4.11
						c-0.38-1.11-0.64-3.66-0.45-5.52c-2.06,1.57-5.51,3.94-7.69,5.2c-3.87,2.29-8.71,3.83-10.55,3.94
						c-1.84,0.11-6.21-0.64-6.54-5.97c-0.23-3.69,3.78-10.31,8.37-15.83c4.39-5.51,10.78-11.77,13.76-11.85
						c3.18-0.09,6.79,1.84,8.91,4.38c1.65,1.85,2.1,4.08,2.47,5.09c2.96-2.03,1.45-3.07,3.21-2.97c1.44,0.01,3.14,0.94,3.02,2.28
						c-0.13,1.14-1.82,3.81-4.21,6.73c-1.52,1.94-3.14,4-4.79,5.64c-1.22,3.47-2.2,4.25-1.76,6.38c0.3,1.52,1.39,2.59,3.24,2.47
						c2.25-0.14,7.16-2.19,14.47-7.06c4.93-3.29,13.63-10.61,15.06-10.8c1.22-0.18,1.5,1.04,1.57,2.16
						C619.75,701.42,611.8,707.36,605.52,712.16z M579.4,690.35c-2.35,0.25-8.06,5.84-11.88,10.6c-3.34,4.21-7.32,11.24-7.02,12.77
						c0.43,1.93,1.16,2.19,3.22,2.27c1.23,0.03,5.13-1.86,8.3-3.8c6.14-3.67,11.71-8.43,13.96-11.86c-0.06-1.02,0.06-2.26-0.03-3.8
						C585.83,694.58,582.16,690.08,579.4,690.35z"/>
				</g>
			</g>
			<g>
				<g>
					<path class="st4" d="M912.59,631.82c-0.5-3.15-2.61-5.7-5.79-5.5c-4.71,0.29-13.58,9.68-18.31,14.7
						c-9.84,10.48-15.54,19.56-19.67,24.24c-4.16,4.16-9.41,9.01-15.36,14.11c-1.68,1.45-4.7,3.87-7.16,6.01
						c0.04-0.42,0.08-0.84,0.05-1.26c-0.29-4.71-4.09-7.97-9.82-7.61c-3.28,0.2-8.08,2.35-12.91,5.63c-1.18,0.9-2.2,2.71-3.38,3.5
						c-0.92,0.06-2.26,0.04-3.24,0.71c-2.96,2.03-4.44,6.24-4.39,8.8c0.05,4.21,3.22,8.84,10.6,8.59
						c4.31-0.16,10.96-2.32,15.81-6.84c1.9-1.75,3.61-3.68,4.92-5.66c0.03,0,0.05,0.01,0.07,0.01c1.32-0.29,5.61-4.05,9.03-6.83
						c2.54-2.11,3.69-3.52,6.44-5.54c-1.75,3.29-3.33,5.96-5.26,9.68c-2.66,5.2-3.12,7.7-3.11,12.83c-0.05,2.57,3.8,5.01,5.14,4.92
						c5.43-0.34,9.63-3.89,13.71-9.28c3.99-5.18,7.68-12.09,7.49-15.16c-0.08-1.33-3.09-3.41-5.45-3.36
						c-3.18-0.01-7.99,2.14-9.89,2.87c0.98-2.42,2.68-4.89,4.77-7.59c2.29-2.92,5.05-4.83,6.67-6.78
						c8.04-4.51,19.93-11.72,27.53-18.35C908.51,642.25,912.93,633.96,912.59,631.82z M835.61,694.86
						c-3.83,2.91-8.43,4.94-11.6,5.14c-3.68,0.23-7.11-2.03-7.28-4.79c-0.05-0.82,1.22-5.11,3.87-5.58c1.22-0.18,1.65,0.1,2.66-0.16
						c2.01-0.74,2.18-3.01,3.83-4.45c3.21-2.97,6.82-4.43,10.1-4.53c2.26-0.04,5.04,0.1,5.24,3.27
						C842.7,688.25,838.95,692.29,835.61,694.86z M871.62,682.15c0.61-0.04,1.35,0.23,1.39,0.84c0.24,2.14-2.92,7.68-6.05,11.78
						c-3.43,4.43-6.84,7.31-9.39,7.67c-1.22,0.18-2.41-0.78-2.58-1.9c-0.2-1.53,0.19-5.15,1.92-8.75c1.54-3.38,2.41-4.26,3.07-5.12
						C861.96,685.42,868.95,682.21,871.62,682.15z M908.71,632.27c-1.12,3.56-4.88,9.14-11.22,14.57
						c-5.27,4.54-13.26,9.97-20.3,14.1c2.71-4.38,8.15-11.19,14.42-17.75c5.01-5.45,13.35-13.47,15.61-13.4
						C908.25,629.83,909.05,631.12,908.71,632.27z"/>
				</g>
			</g>
			<g>
				<g>
					<path class="st4" d="M892.72,703.9c-4.54,1.31-11.02-1.99-11.11-6.81c-0.16-4.2,2.88-8.19,7.84-12.82
						c1.69-2.57,3.28-5.03,4.79-7.28c2.07-3.11,4.19-5.3,5-5.55c1.41-0.5,2.16,0.07,2.35,1.5c0.2,1.53-2.64,3.76-3.93,6.31
						c-1.4,2.24-2.51,4.27-3.23,5.96c1.02-0.17,2.13-0.44,3.28-0.2c2.05-0.02,5.6,0.89,6.38,3.51
						C905.87,693.83,898.48,702.2,892.72,703.9z M895.28,688.73c-2.23,0.45-4.36,0.89-5.72,2.2c-0.63,1.48-3.5,3.3-2.83,5.72
						c0.65,2.22,3.01,3.72,5.34,3.16c3.25-0.61,9.18-6.12,8.26-9.35C899.91,688.86,897.61,688.28,895.28,688.73z"/>
				</g>
			</g>
			<g>
				<g>
					<path class="st4" d="M471.46,707.78c-1.75,0-9.69,7.9-16.75,11.72c-4.28,2.32-8.65,4.65-12.63,5.1
						c-2.25,0.24-3.32-2.06-3.29-3.29c0.15-2.58,1.44-5.02,3.61-8.03c1.61-2.16,6.64-5.55,6.55-6.98c-0.05-0.82-1.27-2.29-2.8-2.09
						c-0.92,0.06-2.5,1.08-4.15,2.72c-2.04,1.98-4.23,4.68-5.61,5.69c-1.3,0.49-2.72,0.89-4.66,1.11c-1.83,0.32-3.85,0.86-5.5,0.75
						c-0.99-1.07-1.75-1.64-3.02-2.28c-1.38-0.74-2.56-1.49-4.52-1.57l2.05-3.42c1.61-2.26,3.5-4.94,3.4-6.58
						c-0.08-1.23-1.48-2.37-2.8-2.09c-1.32,0.29-6.5,6.26-9.53,8.81c-1.17,1.04-17.13,13.35-20.94,15.75
						c-6.53,4.1-12.12,6.71-15.19,6.9c-1.74,0.11-2.32-0.99-2.43-2.73c-0.1-1.54,2.21-5.79,3.73-9.48
						c1.71-4.01,4.81-6.98,4.51-10.15c-0.27-2.66-2.41-4.17-5.6-4.18c-3.49,0.01-10.93,6.12-14.94,7.71
						c-0.04-0.61-0.21-1.73-0.58-2.84c-0.65-2.22-2.25-4.79-6.86-4.51c-4.71,0.29-19.75,8.01-22.58,10.44
						c-0.44-2.03-2.88-5.15-5.67-5.2c-3.79-0.06-9.02,2.1-12.88,4.5c-3.7,2.28-15.75,12.53-18.73,14.52
						c-5.63,3.74-8.71,5.37-10.15,5.36c-1.23-0.03-3.31-0.31-3.4-1.84c-0.08-1.33-0.03-2.16,0.6-3.53c2.31-0.76,5.53-1.88,8.6-3.82
						c3.76-2.39,7.65-5.82,7.57-10.54c-0.08-2.98-2.69-6.82-5.76-6.63c-2.56,0.16-5.51,2.29-8.97,7.75
						c-2.04,3.21-3.82,6.85-4.94,10.5c-3.39,1.28-5.87,1.96-8.53,1.75c1.83-3.31,2.77-5.88,2.65-7.68
						c-0.08-1.33-3.09-3.41-5.45-3.36c-3.18-0.01-7.98,2.14-9.89,2.87c0.98-2.42,2.68-4.89,4.77-7.59c2.29-2.92,5.04-4.83,6.67-6.78
						c8.04-4.51,19.93-11.72,27.53-18.35c7.42-6.42,11.84-14.71,11.5-16.85c-0.5-3.15-2.61-5.7-5.79-5.5
						c-4.71,0.29-13.58,9.68-18.31,14.7c-9.83,10.47-15.54,19.56-19.67,24.24c-4.16,4.16-9.41,9.01-15.37,14.11
						c-1.3,1.12-16.7,14.05-18.85,15.93c-1.69-0.72-8.98-3.83-12.92-6.16c-2.88-1.67-5.74-3.04-5.91-5.9
						c-0.3-4.81,5.55-10,10.93-15.99c4.88-5.75,9.82-10.58,9.52-15.49c-0.09-1.54-1.74-3.28-2.75-3.02
						c-3.22,1.12-9.77,9.75-11.29,11.8c-4.06,5.8-7.91,13.34-10.39,18.11c-1.74,1.75-7.01,6.29-12.52,10.23
						c-6.59,4.72-11.26,9.02-13.53,8.85c-0.62-0.06-0.99-0.97-1.03-1.68c0-1.75,7.44-14.23,12.42-21.84
						c3.75-5.78,8.72-11.95,12.49-17.42c3-4.61,6.15-8.6,6.31-10.98c0.04-1.03-1.35-1.87-2.27-1.81c-2.05,0.13-4.17,5.81-9.16,9.82
						c-5.57,4.66-12.55,9.72-21.64,14.08c-3.49,1.65-9.11,2.21-9.31,3.97c-0.15,0.93,0.22,1.94,1.25,2.08
						c2.7,0.45,6.08-1.4,9.69-2.86c6.52-2.56,11.93-6.49,15.36-9.17c-2.21,4.14-5.98,9.62-9.34,15.17
						c-5.59,9.29-11.18,18.68-11.01,21.34c0.1,1.64,2.94,4.34,5.7,4.07c2.96-0.29,11.37-7.18,14.63-9.33
						c4.25-2.73,7.45-5.91,10.51-7.84c0.79,1.08,2.91,3.83,6.31,5.57c5.64,3.14,11.34,5.67,14.54,7.42
						c-2.09,2.8-4.22,4.89-8.71,10.3c-5.91,7.46-12.51,17.01-12.35,19.57c0.09,1.43,2.51,4.06,5.28,3.89
						c4.61-0.29,9.49-2.75,13.7-6.19c5.47-4.66,9.72-10.57,9.87-19.83c0.1-3.4-0.37-6.04-1.62-7.92c1.55-1.53,3.6-3.01,5.76-4.98
						c1.7-1.56,8.33-7.42,9.95-8.73c2.54-2.11,3.69-3.52,6.44-5.54c-1.75,3.29-3.33,5.96-5.26,9.68c-2.66,5.2-3.12,7.7-3.11,12.83
						c-0.05,2.57,3.81,5.01,5.14,4.92c5.43-0.34,9.63-3.88,13.71-9.28c1-1.3,1.98-2.7,2.89-4.13c0.87,0.16,1.73,0.26,2.59,0.26
						c2.24,0,4.5-0.51,6.98-1.34c-0.2,1.11-0.31,2.12-0.26,2.91c0.18,2.97,4.27,5.9,7.11,5.31c2.84-0.59,9.22-3.76,13.93-7.44
						c2.26-1.79,13.5-10.89,16.99-12.77c3.47-1.96,7.15-3.94,9.61-4.09c1.23-0.08,2.21,0.89,2.39,2.11
						c0.24,2.14-2.97,5.22-5.46,8.15c-2.01,2.39-4.73,4.92-4.52,6.65c0.17,1.12,0.97,2.41,2.21,2.54c2.37,0.16,4.13-2.93,5.88-4.68
						c2.99-3.16,4.76-6.15,8.64-9.78c2.72-2.53,8.96-6.31,13.26-8.22c4.1-1.8,7.07-2.08,7.68-2.12c1.33-0.08,2.71,0.65,2.81,2.19
						c0.08,1.23-0.55,4.35-4,8.37c-1.82,2.17-6.11,5.93-5.71,7.34c0.4,1.41,1.48,2.37,2.81,2.29c1.54-0.1,3.06-2.04,4.66-4.4
						c1.22-1.82,2.91-4.5,5.12-6.89c3.25-2.36,13.72-9.17,15.46-9.18c0.93,0.04,1.99,0.6,2.15,1.51c0.21,1.73-2.97,5.12-4.41,8.49
						c-1.71,3.91-3.56,8.96-3.49,10.08c0.24,3.89,3.39,6.57,6.34,6.18c3.87-0.55,9.91-2.67,17.2-7.64
						c3.3-2.27,17.54-12.66,18.62-13.35c-2.48,3.13-7.86,9.12-7.71,11.58c0.15,2.35,2.18,5.31,6.06,4.97
						c5.01-0.41,6.57-1.74,9.81-4.31c2.64-2.12,4.34-4.59,5.38-6.09c2.02-0.54,4.85-1.33,6.07-1.61c1.53-0.3,2.45-0.25,3.86-0.65
						c-1,2.12-0.9,3.75-0.91,5.19c-0.12,3.09,2.29,7.05,7.2,6.75c5.32-0.33,11.01-3.15,16.84-6.8c5.44-3.42,15.14-11.11,15.04-12.65
						C472.91,708.1,472.59,707.81,471.46,707.78z M285.48,680.72c5.01-5.45,13.35-13.47,15.61-13.4c1.03,0.04,1.83,1.33,1.49,2.48
						c-1.12,3.56-4.88,9.14-11.23,14.57c-5.27,4.54-13.26,9.97-20.3,14.1C273.77,694.09,279.21,687.28,285.48,680.72z
						 M222.07,758.75c-2.7,2.84-7.72,6.34-11,6.64c-0.72,0.04-1.66-0.31-1.8-0.81c-0.45-2.34,5.05-9.77,8.95-14.84
						c3.14-4.1,6.31-7.69,9.29-10.96c0.68,1.09,1.53,3.09,1.6,4.22C229.33,746.58,226.99,753.61,222.07,758.75z M251.43,739.97
						c-1.22,0.18-2.41-0.78-2.58-1.9c-0.2-1.53,0.2-5.15,1.92-8.75c1.54-3.38,2.41-4.26,3.07-5.12c1.86-1.18,8.16-4.08,11.12-4.48
						c-1.82,2.7-2.33,5.78-1.79,7.81c0.09,0.32,0.2,0.6,0.34,0.87c-0.84,1.34-1.76,2.68-2.7,3.9
						C257.4,736.72,253.98,739.61,251.43,739.97z M285.77,716.88c1.38-2.65,3.79-5.17,5.02-5.24c1.13-0.07,1.93,1.22,1.98,2.14
						c0.2,3.17-1.39,4.09-3.13,5.95c-1.85,2-7.21,4.06-7.41,4.1C282.79,722.77,284.85,718.58,285.77,716.88z M416.46,722.49
						c-1.76,1.55-4.73,3.27-5.86,3.24c-0.62-0.06-1.94,0.22-2.14-1.31c-0.18-1.32,2.07-4.86,4.3-6.95c0.97-0.88,1.95-1.77,2.52-2.42
						c0.43,0.28,1.89,0.6,2.83,0.95c0.74,0.26,1.49,0.83,1.54,1.55C419.75,719.1,418.12,721.05,416.46,722.49z"/>
				</g>
			</g>
			<g>
				<g>
					<path class="st4" d="M877.69,631c-3.58,0.22-7.86,0.8-11.03,1.09c-6.75,0.62-20.68,2.92-25.02,4.22
						c-5.75,1.69-11.44,4.51-13.3,5.96c-1.77,1.34-5.65,3.43-13.4,19.23c-2.93,5.83-5.43,15.14-11.16,23.92
						c-3.66,5.67-9.48,11.27-11.8,13.58c-2.41,2.51-5.88,4.58-7.83,4.6c-2.46,0.05-3.75-2.44-3.69-4.81
						c0.03-2.78,3.6-8.24,7.68-12.09c2.42-2.41,6.07-4.9,7.39-5.19c1.12-0.27,1.78,0.61,2.66,1.48c0.76,0.67,0.64,2.02,1.67,2.05
						c1.03,0.04,1.91-0.63,2.05-1.77c0.37-2.39-3.22-5.56-5.99-5.49c-1.95,0.02-7.4,3.34-11.19,6.86c-1.52,1.47-2.97,3.17-4.26,4.9
						c-3.76,3.41-7.52,6.37-12.31,8.36c0.45-0.36,0.88-0.73,1.28-1.11c3.87-3.84,6.52-7.5,6.24-12.1c-0.18-2.97-3.21-5.35-6.28-5.16
						c-2.05,0.13-7.59,1.91-11.85,4.43c-3.27,1.95-4.58,4.09-7.63,6.23c-3.74,2.7-6.13,3.87-10.1,6.18
						c-3.18,1.84-5.15,3.09-8.35,4.63c2.19-2.81,4.23-4.68,6.72-7.61c2.96-3.57,5.49-5.89,5.57-9.59c0.01-1.54-2.26-3.25-3.9-3.25
						c-2.26,0.04-10.75,3.95-16.33,8.41c-2.01,1.61-11,9.52-14.18,11.77c-3.94,2.71-8.88,5.89-12.57,6.12
						c-5.53,0.34-9.81-2.37-10.02-5.85c-0.17-2.76,2.33-5.49,5.17-9.47c1.71-2.26,4.59-5.53,4.87-7.7c0.13-1.24-1.33-1.56-2.57-1.69
						c-2.79-0.24-5.78,6.22-8.1,8.52c-3.98,3.84-8.58,7.42-11.73,9.77c-2.85,2.13-5.8,4.16-8.69,5.68
						c-5.67,3.02-9.09,4.26-10.62,4.36c-1.23,0.08-2.61-0.76-2.6-2.1c0.01-1.54,1.2-3.88,2.5-6.12c0.83-1.49,2.53-2.21,2.65-3.66
						c0.06-0.72-0.61-1.5-1.33-1.56c-3.72-0.39-7.55,7.46-7.7,11.78c-0.1,3.4,1.89,5.64,6.7,5.34c2.87-0.18,8.36-2.68,13.43-5.56
						c5.56-3.22,11.25-7.58,12.43-8.37c-0.16,0.83,0.56,2.33,1.7,4.21c1.93,2.96,5.74,6.43,13.93,5.92
						c5.12-0.32,11.46-4.1,15.77-7.55c2.02-1.61,10.96-9.01,13.4-11.11c4.58-3.98,10.79-6.73,11.9-6.9
						c0.71-0.15,1.37,0.43,1.51,1.14c0.44,2.13-6.5,7.9-10.18,11.52c-2.7,2.84-7.46,7.25-7.62,9.62c-0.13,1.24,1.14,1.78,2.37,1.81
						c1.64,0,10.57-5.28,17.11-9.08c3.77-2.19,7.54-4.37,9.51-5.73c-0.24,1.04-0.82,1.7-1.04,3.15c-0.22,2.41,2.58,5.28,6.26,5.65
						c0.97,0.25,2.1,0.42,3.42,0.42c1.15,0,2.45-0.13,3.88-0.43c5.4-1.14,9.62-3.27,13.35-5.89c-0.24,0.86-0.37,1.66-0.27,2.3
						c0.69,4.58,3.42,8.73,8.42,8.21c3.78-0.44,6.15-1.92,9.65-5.12c4.37-4.18,8.8-8.97,12.09-13.9
						c5.64-8.47,9.07-17.83,12.99-25.98c2.56-5.09,6.04-11.88,10.69-16.59c4.22-3.24,4.84-3.18,13.1-5.95
						c6.04-2.02,28.88-4.97,34.61-5.43c3.68-0.33,3.79-0.23,6.73-0.83c1.21-0.28,1.78-1.14,2.12-2.19
						C886.91,630.53,882.4,630.71,877.69,631z M757.33,690.56c0.61-0.04,1.74-0.11,2.21-0.75c0.49-0.44,0.23-1.25,0.5-1.88
						c1.36-1.32,6.71-4.53,8.36-4.42c1.55,0.11,3.06,1.25,3.06,2.89c0.04,2.36-2.34,5.39-4.85,7.91c-1.65,1.64-6.9,4.74-9.36,4.9
						c-1.13,0.07-3.03-0.74-3.2-1.86C753.85,695.71,756.1,692.28,757.33,690.56z"/>
				</g>
			</g>
		</g>
		<g>
			<g>
				<g>
					<path class="st4" d="M286.38,516.46V636.1l-15.5,0V519.04h-69.76V636.1l-15.5,0V516.46h15.5h69.76L286.38,516.46z"/>
				</g>
			</g>
			<g>
				<g>
					<path class="st4" d="M406.91,547.46c0,20.67-20.67,31-38.75,31h-41.34v57.64l-15.5-0.09V516.46h15.5h38.75
						C385.79,516.46,406.91,526.79,406.91,547.46z M368.15,575.88c18.09,0,23.25-15.13,23.25-28.42c0.01-7.54-2.97-14.78-8.31-20.11
						c-5.33-5.33-12.57-8.32-20.11-8.31h-36.17v56.84L368.15,575.88L368.15,575.88z"/>
				</g>
			</g>
			<g>
				<g>
					<path class="st4" d="M543.51,575.16c0,41.34-28.42,62.01-62.01,62.01c-33.59,0-62.01-20.67-62.01-62.01
						c0-41.34,28.42-59.42,62.01-59.42C515.09,515.73,543.51,533.82,543.51,575.16z M528.01,575.16c0-41.34-28.42-56.84-51.67-56.84
						c-31,0-41.34,28.42-41.34,56.84c0,41.34,28.42,59.42,51.67,59.42C517.68,634.58,528.01,603.58,528.01,575.16z"/>
				</g>
			</g>
			<g>
				<g>
					<path class="st4" d="M666.89,619.5c-12.24,11.86-28.78,18.24-45.82,17.67c-33.59,0-62.01-20.67-62.01-62.01
						c0-41.34,28.42-59.42,62.01-59.42c13.64-0.29,27.04,3.65,38.35,11.29l-4.48,10.46c-9.45-11.95-23.8-19-39.04-19.15
						c-31,0-41.34,28.42-41.34,56.84c0,41.34,28.42,59.42,51.67,59.42c15.46-0.36,29.42-9.34,36.17-23.25L666.89,619.5z"/>
				</g>
			</g>
			<g>
				<g>
					<path class="st4" d="M771.87,516.46v12.92h-15.5v-10.33h-25.84V636.1l-15.5,0V519.04h-25.84v10.33h-15.5v-12.92h15.5h67.17
						H771.87z"/>
				</g>
			</g>
			<g>
				<g>
					<path class="st4" d="M898.79,575.16c0,41.34-28.42,62.01-62.01,62.01c-33.59,0-62.01-20.67-62.01-62.01
						c0-41.34,28.42-59.42,62.01-59.42C870.37,515.73,898.79,533.82,898.79,575.16z M883.28,575.16c0-41.34-28.42-56.84-51.67-56.84
						c-31,0-41.34,28.42-41.34,56.84c0,41.34,28.42,59.42,51.67,59.42C872.95,634.58,883.28,603.58,883.28,575.16z"/>
				</g>
			</g>
		</g>
		<g>
			<g>
				<path class="st4" d="M658.78,321.25c-3.6-12.94-18.78-24.02-41.85-22.11c-15.26,1.15-31.76,1.59-55.25,15.15
					c11.77-15.79,23.74-33.34,26.34-53.38c1.53-11.75-2.34-23.87-13.97-28.66c-10.04-4.18-23.99-1.75-33.69,21.57
					c-6.83,16.75-6.94,25.67-5.54,58.8c-9.48-32.23-14.74-44.53-24.98-56.97c-13.91-17.08-27.99-17.74-36.88-9.56
					c-8.75,8.22-12.3,25.27-1.75,44.69c7.63,13.88,13.53,21.98,40.26,37.1c-27.1-6.02-38.89-3.93-54.02,0.11
					c-11.91,3.29-25.46,9.86-30.88,21.75c-5.73,12.58,3.32,26.18,14.83,31.71c26.13,12.56,53.05-3.07,75.36-15.99
					c-7.15,7.12-14.32,14.28-20.35,22.37c-12.14,16.29-25.17,53.46,1.73,63.74c8.07,3.09,16.82,2.35,23.97-2.66
					c6.79-4.75,11.57-12.43,14.92-19.89c9.75-21.72,7.43-46.32,6.34-48.89c10.86,25.55,17.3,35.83,29.92,47.43
					c20.07,18.28,38.45,17.15,47.69,9.85c9.17-7.24,6.9-21.61,3.05-31.09c-4.94-12.21-13.78-22.99-24.03-31.13
					c-4.35-3.46-30.16-20.53-33.69-21.34c29.57,6.78,48.9,4.62,64.61,0.73C654.39,349,662.38,334.19,658.78,321.25z M542.35,357.5
					c-8.87-0.22-16.07-6.6-16.07-15.41c0-8.88,7.25-17.08,16.07-16.07c9.71,1.11,13.82,7.25,14.78,16.07
					C558.23,352.22,551.18,357.72,542.35,357.5z"/>
			</g>
		</g>
	</g>
</g>
</svg>
