<?xml version="1.0" encoding="UTF-8" standalone="no"?>
<!-- Generator: Adobe Illustrator 28.0.0, SVG Export Plug-In . SVG Version: 6.00 Build 0)  -->

<svg
   version="1.0"
   id="Слой_1"
   x="0px"
   y="0px"
   viewBox="0 0 1080 1080"
   style="enable-background:new 0 0 1080 1080;"
   xml:space="preserve"
   sodipodi:docname="logo_flower_gray.svg"
   inkscape:version="1.3.2 (091e20e, 2023-11-25, custom)"
   xmlns:inkscape="http://www.inkscape.org/namespaces/inkscape"
   xmlns:sodipodi="http://sodipodi.sourceforge.net/DTD/sodipodi-0.dtd"
   xmlns="http://www.w3.org/2000/svg"
   xmlns:svg="http://www.w3.org/2000/svg"><defs
   id="defs1" /><sodipodi:namedview
   id="namedview1"
   pagecolor="#ffffff"
   bordercolor="#000000"
   borderopacity="0.25"
   inkscape:showpageshadow="2"
   inkscape:pageopacity="0.0"
   inkscape:pagecheckerboard="0"
   inkscape:deskcolor="#d1d1d1"
   inkscape:zoom="0.83240741"
   inkscape:cx="523.78198"
   inkscape:cy="602.46941"
   inkscape:window-width="1920"
   inkscape:window-height="1137"
   inkscape:window-x="-8"
   inkscape:window-y="-8"
   inkscape:window-maximized="1"
   inkscape:current-layer="Слой_1" />
<style
   type="text/css"
   id="style1">
	.st0{fill:#D5D6A5;}
	.st1{fill:#FFFBF6;}
	.st2{fill:#FFFFFF;}
	.st3{fill:#1D1E1B;}
	.st4{fill:#4B4A49;}
	.st5{fill:#FBE1E7;}
	.st6{fill:#868686;}
	.st7{fill:#C5C496;}
	.st8{fill:#F7C6D3;}
	.st9{fill:#E2DED5;}
</style>

<rect
   style="opacity:1;fill:#ffffff;stroke-width:1.04805;fill-opacity:1"
   id="rect1"
   width="1048.0533"
   height="1048.0533"
   x="15.973328"
   y="15.973328"
   rx="126.66418"
   ry="126.66418" /><path
   class="st4"
   d="M897.37,476.4c-11.04-39.67-57.58-73.62-128.3-67.77c-46.79,3.54-97.37,4.88-169.36,46.45  c36.08-48.41,72.77-102.2,80.76-163.62c4.68-36.02-7.16-73.17-42.84-87.86c-30.79-12.82-73.55-5.37-103.28,66.11  c-20.94,51.36-21.27,78.69-16.98,180.26c-29.05-98.8-45.2-136.5-76.56-174.63c-42.64-52.35-85.8-54.37-113.06-29.32  c-26.81,25.19-37.72,77.46-5.38,136.99c23.39,42.56,41.48,67.37,123.4,113.73c-83.08-18.45-119.22-12.04-165.59,0.32  c-36.51,10.09-78.06,30.23-94.65,66.66c-17.56,38.55,10.19,80.25,45.45,97.2c80.09,38.51,162.62-9.4,231.02-49.03  c-21.91,21.84-43.91,43.78-62.39,68.59c-37.22,49.95-77.14,163.89,5.31,195.4c24.75,9.46,51.55,7.2,73.49-8.15  c20.82-14.56,35.48-38.1,45.75-60.97c29.9-66.57,22.78-141.98,19.43-149.87c33.29,78.33,53.02,109.85,91.73,145.41  c61.52,56.05,117.86,52.56,146.2,30.19c28.12-22.2,21.14-66.24,9.36-95.3c-15.16-37.42-42.26-70.48-73.68-95.43  c-13.35-10.6-92.47-62.94-103.26-65.41c90.66,20.78,149.91,14.16,198.07,2.25C883.91,561.46,908.39,516.07,897.37,476.4z   M540.45,587.52c-27.2-0.68-49.26-20.24-49.26-47.24c0-27.21,22.23-52.36,49.26-49.26c29.78,3.41,42.36,22.21,45.29,49.26  C589.12,571.33,567.53,588.2,540.45,587.52z"
   id="path1"
   style="enable-background:new 0 0 1080 1080" /></svg>
